<svg width="135" height="30" viewBox="0 0 135 30" fill="none" xmlns="http://www.w3.org/2000/svg">
<path fill-rule="evenodd" clip-rule="evenodd" d="M4.19016 0.939619C3.02141 1.46598 1.3908 3.15476 0.960791 4.28378C0.756621 4.82025 0.632568 8.53483 0.632568 14.1101C0.632568 24.3448 0.757549 25.0675 2.90541 27.2517C5.39356 29.7821 5.32767 29.7702 16.719 29.7702C26.7397 29.7702 26.7766 29.7677 27.7791 29.0593C28.3326 28.6684 29.1679 27.8519 29.6353 27.245L30.4854 26.1414V16.3132C30.4854 5.30924 30.4749 5.24919 28.1653 2.96174C25.8748 0.693288 25.7563 0.672148 14.8629 0.592795C7.17173 0.536727 4.92271 0.609953 4.19016 0.939619ZM9.0059 3.65601C10.2171 4.46424 11.0111 6.23267 10.7052 7.43982C10.5898 7.8951 10.0305 8.72816 9.46189 9.29128C8.60096 10.1439 8.20344 10.3131 7.08264 10.3042C5.46378 10.291 4.51003 9.81184 3.70942 8.60928C2.91407 7.41439 2.95119 6.03935 3.81275 4.77307C5.10492 2.87411 7.16926 2.43016 9.0059 3.65601ZM15.1723 3.23075C15.1723 3.37842 14.9783 3.65876 14.7416 3.85362C14.5047 4.04817 14.1354 4.62723 13.9209 5.1398L13.5309 6.07213L13.1559 5.0531C12.9499 4.49273 12.6776 3.79295 12.5515 3.49791C12.3519 3.0319 12.5085 2.96174 13.7471 2.96174C14.531 2.96174 15.1723 3.08276 15.1723 3.23075ZM24.3011 3.53314C28.7892 5.5525 29.3924 11.3548 25.4042 14.1446C24.2361 14.9618 23.8413 15.0638 21.8476 15.0638C19.8835 15.0638 19.4464 14.9547 18.3271 14.1867C16.952 13.243 15.4804 10.7721 15.4835 9.41231C15.4934 4.90359 20.2693 1.71906 24.3011 3.53314ZM79.5183 16.9021V26.2467H80.8962H82.2744L82.3657 24.2032C82.4161 23.0791 82.5964 22.1222 82.7666 22.0772C82.9367 22.0319 83.9112 22.94 84.9321 24.0957L86.7882 26.1965L88.7217 26.2216C89.7852 26.2355 90.6502 26.1432 90.644 26.0169C90.6378 25.8908 89.3939 24.4774 87.8793 22.8765L85.1254 19.9659L87.8066 17.2851L90.4875 14.6042H88.4909H86.4943L84.3984 16.664L82.3025 18.7239V13.1407V7.55747H80.9104H79.5183V16.9021ZM103.648 16.9021V26.2467H105.04C106.051 26.2467 106.433 26.1249 106.433 25.8022C106.433 25.4367 106.666 25.4627 107.747 25.9486C113.63 28.5934 118.816 21.7559 115.021 16.3589C113.628 14.3782 109.593 13.6058 107.437 14.9073L106.433 15.5145V11.5358V7.55747H105.04H103.648V16.9021ZM117.878 16.8852V26.2467H119.43H120.981L120.899 16.9787L120.817 7.71066L119.348 7.61721L117.878 7.52377V16.8852ZM39.6114 17.6681V26.2467L43.4011 26.2449C47.796 26.2431 49.1228 25.9527 50.5976 24.6701C52.7383 22.8088 52.6956 19.7478 50.5014 17.7572C49.89 17.2027 49.5584 16.749 49.7642 16.749C50.4302 16.749 51.3645 14.8185 51.3657 13.44C51.3673 11.655 50.6665 10.4424 49.2074 9.70525C48.1642 9.17823 47.3849 9.08938 43.8001 9.08938H39.6114V17.6681ZM13.7586 12.815C14.192 13.6753 14.187 13.728 13.6939 13.5301C12.8271 13.1817 11.6754 12.83 10.7179 12.6207L9.82108 12.4249L10.8772 11.7142C11.4579 11.3232 12.1388 10.6231 12.3902 10.1581L12.8471 9.31243L13.069 10.5992C13.1909 11.307 13.5012 12.3042 13.7586 12.815ZM47.6917 12.4289C49.185 14.2552 47.788 15.8298 44.674 15.8298H42.705V13.6505V11.4712L44.9076 11.5947C46.7532 11.6979 47.2048 11.8334 47.6917 12.4289ZM5.11823 12.7874C5.99371 13.0968 6.01103 13.1343 5.42759 13.4471C5.08729 13.6294 4.42589 14.0426 3.95814 14.3656L3.10742 14.9523V13.3971C3.10742 12.0021 3.16341 11.8735 3.64879 12.1504C3.9467 12.3204 4.6078 12.607 5.11823 12.7874ZM55.3113 15.1226C54.5029 15.5685 53.8418 16.0216 53.8418 16.1303C53.8418 16.2391 54.2569 16.7219 54.7646 17.2033C55.6404 18.0345 55.7168 18.0525 56.2687 17.5578C57.1581 16.7609 58.6659 16.4312 59.7347 16.8C60.5075 17.067 61.2664 17.8445 61.2664 18.37C61.2664 18.4411 60.2832 18.5897 59.0813 18.7003C56.4366 18.9438 55.0931 19.4622 54.2031 20.583C53.3771 21.6228 53.2902 23.9296 54.037 24.9854C55.1265 26.5262 58.0747 27.0053 60.1183 25.9735C61.025 25.5154 61.2664 25.4832 61.2664 25.8203C61.2664 26.1214 61.6753 26.2467 62.6584 26.2467H64.0505L64.0499 21.8808C64.0496 16.8574 63.7047 15.7348 61.8851 14.8347C60.1696 13.986 57.1321 14.1192 55.3113 15.1226ZM70.1603 14.7412C69.6925 14.9829 69.3095 15.0509 69.3095 14.8926C69.3095 14.7338 68.6135 14.6042 67.7628 14.6042H66.2161V20.4255V26.2467H67.7628H69.3095V22.4853C69.3095 19.5321 69.416 18.5732 69.8049 18.0232C70.4298 17.1399 71.597 16.6907 72.6126 16.9432C73.8537 17.2517 74.2592 18.6731 74.2592 22.7136V26.2467H75.6514H77.0435V21.9476C77.0435 17.0391 76.7292 15.8849 75.1286 14.9186C73.9054 14.1799 71.4185 14.0911 70.1603 14.7412ZM93.2847 14.7372C92.7742 14.9654 92.0781 15.3635 91.7378 15.6215C91.1275 16.0841 91.1316 16.1037 92.0266 17.0311C92.8967 17.9334 92.9644 17.9515 93.6899 17.4808C95.561 16.2666 97.6842 16.4107 98.3202 17.795C98.6412 18.4907 98.6068 18.5075 96.4874 18.7028C93.8849 18.9423 92.5233 19.4647 91.6566 20.556C90.67 21.7981 90.5153 23.0028 91.1718 24.3331C92.1976 26.4128 95.1677 27.1763 97.5504 25.9735C98.4568 25.5154 98.6985 25.4832 98.6985 25.8203C98.6985 26.1206 99.1044 26.2467 100.067 26.2467H101.436L101.263 21.5745C101.069 16.3574 100.827 15.5605 99.2066 14.7988C97.9038 14.1867 94.5923 14.152 93.2847 14.7372ZM125.861 14.9066C123.427 16.2146 122.226 19.0404 122.859 21.9647C123.704 25.8684 128.129 27.6935 132.054 25.7572C134.002 24.7954 134.588 23.9517 133.757 23.3058C132.415 22.2622 132.174 22.2332 131.329 23.0092C130.88 23.421 130.106 23.8462 129.609 23.9544C128.447 24.2072 126.527 23.3043 126.012 22.2638L125.633 21.4979L130.108 21.413L134.584 21.3285L134.577 19.881C134.568 17.9995 133.682 16.1083 132.378 15.1888C130.926 14.1643 127.516 14.0166 125.861 14.9066ZM12.7884 16.1359C15.9884 18.3074 16.6129 22.4559 14.1564 25.2265C11.5568 28.1589 7.34188 28.1592 4.74298 25.2278C2.07231 22.2151 2.95057 17.6736 6.55426 15.8613C8.38317 14.9416 11.212 15.066 12.7884 16.1359ZM28.1083 17.7679L28.0105 18.4806L26.6701 17.8985L25.3294 17.3164L26.6701 16.4732L28.0105 15.6304L28.1083 16.3427C28.1621 16.7345 28.1621 17.3761 28.1083 17.7679ZM130.831 17.1837C130.99 17.2811 131.266 17.7744 131.443 18.2802L131.767 19.2H128.661H125.555L126.141 18.2042C127.026 16.6975 129.247 16.214 130.831 17.1837ZM18.8846 17.3678C19.31 17.5051 20.0653 17.7064 20.5634 17.8155L21.4692 18.0134L20.5634 18.5973C20.0653 18.9184 19.3445 19.6298 18.9619 20.1777L18.2659 21.1743L18.259 20.2637C18.2554 19.7628 17.9769 18.7527 17.6407 18.0182C17.0795 16.7934 17.0736 16.7015 17.5701 16.9009C17.8677 17.0204 18.4592 17.2302 18.8846 17.3678ZM111.217 17.1843C112.453 17.6956 113.239 19.0214 113.239 20.594C113.239 21.4574 112.999 21.9497 112.186 22.754C110.265 24.6566 107.443 23.9238 106.74 21.3394C106.237 19.4892 107.357 17.3804 109.062 16.9692C110.071 16.7259 110.12 16.7308 111.217 17.1843ZM48.0769 19.2223C48.7058 19.712 48.8921 20.1274 48.8921 21.0383C48.8921 22.8532 47.8777 23.4893 44.9834 23.4893H42.705V21.0383V18.5872H44.9834C46.82 18.5872 47.4198 18.7104 48.0769 19.2223ZM26.3339 20.6418C27.2889 21.2007 28.1653 22.7025 28.1653 23.7807C28.1653 25.5439 26.1464 27.4702 24.2983 27.4702C23.0071 27.4702 21.4457 26.4468 20.8505 25.2106C20.1353 23.7252 20.4914 22.2378 21.8439 21.0615C23.1128 19.958 24.8821 19.7925 26.3339 20.6418ZM61.1336 21.8808C60.8497 23.0782 59.5754 24.1021 58.3692 24.1021C56.9347 24.1021 56.1762 23.4731 56.4253 22.4905C56.6647 21.5451 57.7353 21.0962 59.8303 21.0625C61.3161 21.0386 61.331 21.0478 61.1336 21.8808ZM98.5189 21.8808C98.4138 22.3444 97.986 23.0337 97.5676 23.4127C96.2401 24.6168 93.7487 24.1665 93.7487 22.7225C93.7487 21.7098 95.0319 21.0658 97.0806 21.0505C98.7004 21.0383 98.709 21.0432 98.5189 21.8808ZM18.5993 26.691C19.1599 27.2633 18.8639 27.4723 17.4925 27.4723C16.0639 27.4723 15.7737 27.2029 16.531 26.5804C16.7679 26.3859 17.1441 25.7909 17.3669 25.2584L17.7715 24.2902L18.0432 25.345C18.1922 25.9253 18.4425 26.5308 18.5993 26.691Z" fill="#6B7280"/>
</svg>
