<svg width="150" height="26" viewBox="0 0 150 26" fill="none" xmlns="http://www.w3.org/2000/svg">
<path fill-rule="evenodd" clip-rule="evenodd" d="M18.8185 0.594309C17.5446 1.38483 17.2732 1.85529 16.2146 5.10906L15.2295 8.13752L13.5485 5.15658L11.8674 2.17592L8.42574 2.09792L4.98434 2.01993L4.69352 2.79675C4.5335 3.22416 4.15677 4.39121 3.8563 5.39054C2.31709 10.5079 0.714535 15.6654 0.486228 16.2356C0.344672 16.5887 0.229004 17.4543 0.229004 18.1594C0.229004 20.5569 1.88802 22.1626 4.36524 22.1626C5.34181 22.1626 5.68882 21.996 6.54779 21.1143C7.16413 20.4815 7.73669 19.512 7.99171 18.6684C8.22443 17.8996 8.63312 16.5347 8.90026 15.6352L9.38606 13.9996L11.0217 16.971L12.6573 19.9422L16.2661 19.8645C19.8477 19.787 19.8766 19.7812 20.0845 19.0877C20.1997 18.7033 20.6885 17.068 21.1704 15.4537C21.6524 13.8395 22.6129 10.7576 23.3048 8.60518C24.0018 6.43656 24.5471 4.22153 24.5279 3.63731C24.4369 0.888381 21.1594 -0.858422 18.8185 0.594309ZM21.9856 2.59521C23.1395 3.76645 22.4095 5.94961 20.864 5.94961C19.7245 5.94961 19.2545 5.68713 18.8012 4.79766C18.4376 4.08401 18.4382 3.90064 18.8056 3.17944C19.0336 2.73219 19.3776 2.30198 19.5701 2.22316C20.3618 1.90001 21.4684 2.07025 21.9856 2.59521ZM129.943 3.85312C129.943 5.59852 129.329 6.50868 128.152 6.50868C127.483 6.50868 127.464 6.56458 127.464 8.46542V10.4221H128.565H129.667V13.6457C129.667 17.1192 129.95 18.2421 131.077 19.2584C132.231 20.2978 134.315 20.7489 135.932 20.3092C136.499 20.1549 136.552 19.9755 136.552 18.2163V16.2923H135.48C134.148 16.2923 134.073 16.1135 134.073 12.915V10.4221H135.313H136.552V8.46542V6.50868H135.313H134.073V4.8544C134.073 2.35733 134.037 2.31568 131.84 2.31568H129.943V3.85312ZM13.5864 8.09503L14.7369 10.2424L14.2466 11.6602C13.977 12.4398 13.5542 13.8009 13.3072 14.6851C13.0605 15.5692 12.752 16.2923 12.6217 16.2923C12.4917 16.2923 11.8715 15.3478 11.2439 14.1936L10.1024 12.0948L11.1274 8.87716C11.6911 7.10716 12.216 5.72403 12.2943 5.80342C12.3722 5.88253 12.9539 6.91372 13.5864 8.09503ZM35.8324 6.30546C35.3448 6.49414 34.694 6.86732 34.3866 7.13484C33.8518 7.60054 33.8278 7.59746 33.8278 7.06495C33.8278 6.55899 33.6409 6.50868 31.7623 6.50868H29.6968V13.3572V20.2058H31.7623H33.8278V16.334C33.8278 11.1369 34.2162 10.1427 36.2456 10.1427C37.7944 10.1427 37.9588 10.6748 37.9588 15.6855V20.2058H40.1826H42.4065L42.3171 14.6403L42.2276 9.07477L41.3763 8.00139C40.9081 7.41101 40.1725 6.75271 39.7415 6.53831C38.66 6.00076 36.8933 5.89538 35.8324 6.30546ZM49.8011 6.33314C46.3467 7.49683 44.7094 9.71523 44.7199 13.2174C44.7251 14.9855 44.8485 15.541 45.5067 16.7619C46.919 19.3817 48.8645 20.5164 51.9434 20.5164C53.7753 20.5164 54.1519 20.4185 55.496 19.5925C59.5781 17.0837 60.2497 11.4966 56.8926 7.97567C55.2724 6.27583 52.1304 5.5482 49.8011 6.33314ZM90.5603 6.14025C90.3331 6.22076 89.6826 6.52322 89.1144 6.81253C88.2505 7.25224 88.0817 7.27041 88.0817 6.92351C88.0817 6.59366 87.6587 6.50868 86.0162 6.50868H83.9507V15.873V25.2374H86.1539H88.3571V22.4385V19.6392L89.3546 20.0624C91.6451 21.0338 94.6726 20.278 96.3748 18.3101C97.6706 16.8119 98.0635 15.6005 98.0529 13.1306C98.0384 9.52796 96.7083 7.38725 93.8485 6.36304C92.701 5.95213 91.3496 5.86044 90.5603 6.14025ZM105.018 6.27639C102.449 7.15524 100.576 8.88051 99.9728 10.9272C98.9516 14.3871 100.607 18.2834 103.801 19.9377C105.362 20.7456 108.318 20.7414 109.97 19.9291C114.402 17.7517 115.421 11.9962 112.065 8.11543C110.546 6.35941 107.273 5.50515 105.018 6.27639ZM121.749 6.5056C121.257 6.81029 120.855 6.93553 120.855 6.78402C120.855 6.62608 119.914 6.50868 118.651 6.50868H116.448V13.3572V20.2058H118.651H120.855V15.2707C120.855 10.5071 120.872 10.3517 121.358 10.7981C122.156 11.531 123.945 11.4021 124.783 10.5515C125.729 9.5908 125.92 8.64208 125.393 7.515C124.667 5.96219 123.258 5.57197 121.749 6.5056ZM141.928 6.3963C139.619 7.2542 138.203 9.56426 138.767 11.5515C139.266 13.3078 140.583 14.3772 143.049 15.0294C144.836 15.5016 145.469 15.9712 145.217 16.6368C144.79 17.7666 142.465 17.2763 142.133 15.9863C142.016 15.5351 141.829 15.4842 140.858 15.6402C139.21 15.9049 138.491 16.1238 138.485 16.3622C138.458 17.4409 138.593 17.8004 139.347 18.6718C140.495 20.0001 141.738 20.4853 143.988 20.4853C147.528 20.4853 149.496 18.8213 149.496 15.8272C149.496 13.622 148.116 12.1946 145.365 11.5543C143.409 11.0989 143.024 10.8895 143.024 10.2824C143.024 8.98924 145.409 9.07226 145.593 10.3718C145.676 10.9642 145.773 10.9955 146.969 10.8174C149.255 10.4766 149.501 10.3039 149.213 9.24697C148.725 7.4658 146.154 5.90936 143.797 5.96918C143.372 5.98009 142.531 6.1724 141.928 6.3963ZM59.7154 6.86788C59.7154 7.19829 60.5631 10.0232 62.8368 17.2707L63.7137 20.066L65.9508 20.1468C68.1785 20.2271 68.1887 20.2243 68.3748 19.4715C68.7436 17.9794 70.8058 12.0817 70.9184 12.1961C70.9818 12.2604 71.6202 14.0574 72.337 16.1894L73.6405 20.066L75.7283 20.1471C78.1799 20.2422 77.7376 20.8739 79.6988 14.4754C80.4057 12.1693 81.2179 9.53829 81.5035 8.62894C81.789 7.71961 82.0229 6.86508 82.0229 6.73035C82.0229 6.59534 81.0648 6.52182 79.8935 6.56682L77.7641 6.64844L76.8143 10.0728C76.2918 11.9559 75.7928 13.497 75.7055 13.497C75.6182 13.497 75.1221 12.2075 74.6033 10.6318C73.1167 6.11649 73.4701 6.50868 70.886 6.50868H68.6499L67.4479 10.2061C66.1271 14.268 66.1763 14.2501 65.3226 10.9812C65.102 10.1356 64.7327 8.78352 64.5019 7.97623L64.0827 6.50868H61.8991C60.3045 6.50868 59.7154 6.60539 59.7154 6.86788ZM53.2003 10.4529C54.1146 10.8758 54.5746 11.8511 54.5746 13.3668C54.5746 15.6648 52.7792 17.0812 50.8793 16.2826C49.2012 15.577 48.5424 13.5281 49.4025 11.6884C50.0613 10.2793 51.6836 9.75152 53.2003 10.4529ZM93.0601 10.9597C94.5787 12.501 93.9794 15.7229 92.0744 16.2568C89.8291 16.8861 88.3571 15.6243 88.3571 13.0701C88.3571 11.296 89.4421 10.1427 91.1111 10.1427C92.0083 10.1427 92.4286 10.319 93.0601 10.9597ZM108.292 10.4585C109.524 11.0282 110.09 13.6533 109.302 15.1468C108.896 15.9169 107.231 16.6697 106.402 16.4584C105.212 16.1557 104.37 15.2111 104.188 13.9784C103.774 11.1668 105.894 9.34929 108.292 10.4585ZM5.3363 16.9786C6.39632 18.0543 6.20574 19.3865 4.89291 20.0756C3.62607 20.7405 1.8814 19.639 1.8814 18.1742C1.8814 17.4247 3.12457 16.2923 3.94691 16.2923C4.33935 16.2923 4.96451 16.6012 5.3363 16.9786Z" fill="#6B7280"/>
</svg>
